<svg xmlns="http://www.w3.org/2000/svg" width="98" height="16" viewBox="0 0 98 16">
  <path fill="none" stroke="#D95626" stroke-width="2" d="M5,5 C5,5 6.34739093,6.34739093 7.99686968,7.99686968 L11.0031303,11.0031303 C12.6582557,12.6582557 15.283368,12.5999622 16.8614051,10.8784671 L22.1385949,5.12153286 C23.7189053,3.39755786 26.3416228,3.34162278 27.997152,4.99715203 L34.002848,11.002848 C35.6581293,12.6581293 38.283368,12.5999622 39.8614051,10.8784671 L45.1385949,5.12153286 C46.7189053,3.39755786 49.3416228,3.34162278 50.997152,4.99715203 L57.002848,11.002848 C58.6581293,12.6581293 61.3416228,12.6583772 62.997152,11.002848 L69.002848,4.99715203 C70.6581293,3.34187067 73.3416228,3.34162278 74.997152,4.99715203 L81.002848,11.002848 C82.6581293,12.6581293 85.3416228,12.6583772 86.997152,11.002848 L93.002848,4.99715203" stroke-linecap="round"/>
</svg>
