<svg fill="currentcolor" stroke="none" stroke-linecap="round" stroke-linejoin="round" stroke-width="6.25%" width="32" height="32" viewBox="0 0 32 32" xmlns="http://www.w3.org/2000/svg"><path d="M30 16.652c0 .594-.036 1.146-.11 1.655H11.907c0 1.548.57 2.845 1.711 3.89 1.14 1.044 2.482 1.567 4.024 1.567a5.943 5.943 0 0 0 2.898-.74 5.47 5.47 0 0 0 2.133-2.076h6.61a12.598 12.598 0 0 1-2.665 4.47 12.521 12.521 0 0 1-4.18 2.999 12.26 12.26 0 0 1-5.015 1.058c-1.948 0-3.802-.44-5.563-1.32C9.484 29.385 7.432 30 5.703 30 3.234 30 2 28.605 2 25.816c0-1.22.234-2.678.703-4.375.177-.636.745-1.85 1.703-3.643 2.073-3.818 4.547-7.032 7.422-9.641-1.917.838-4.14 2.715-6.672 5.632.657-2.906 2.133-5.29 4.43-7.151 2.297-1.862 4.909-2.793 7.836-2.793.312 0 .547.006.703.016C20.781 2.621 23.036 2 24.891 2c.666 0 1.27.069 1.812.207a4.825 4.825 0 0 1 1.477.644c.442.292.789.697 1.039 1.217.25.52.375 1.13.375 1.83 0 1.23-.39 2.747-1.172 4.55A12.766 12.766 0 0 1 30 16.652zM28.906 6.47c0-.88-.276-1.58-.828-2.1-.552-.52-1.265-.78-2.14-.78-1.125 0-2.448.372-3.97 1.115a12.4 12.4 0 0 1 3.477 2.092 12.789 12.789 0 0 1 2.664 3.11c.532-1.432.797-2.577.797-3.437zM4 26.15c0 .912.253 1.615.758 2.108.505.493 1.206.74 2.101.74 1.198 0 2.584-.44 4.157-1.32a12.651 12.651 0 0 1-3.336-2.912 12.491 12.491 0 0 1-2.149-3.898C4.511 23.042 4 24.803 4 26.15zm7.875-11.343H23.25c-.052-1.506-.64-2.763-1.766-3.77-1.125-1.008-2.432-1.512-3.922-1.512-1.5 0-2.81.504-3.93 1.511-1.119 1.008-1.705 2.265-1.757 3.77z"/></svg>