<svg fill="currentcolor" stroke="none" stroke-linecap="round" stroke-linejoin="round" stroke-width="6.25%" width="32" height="32" viewBox="0 0 32 32" xmlns="http://www.w3.org/2000/svg"><path d="M3.984 16c0-1.698.35-3.328 1.047-4.89l5.735 15.703c-2.042-.99-3.683-2.454-4.922-4.391-1.24-1.938-1.86-4.078-1.86-6.422zm20.125-.61c0 .199-.013.4-.039.602-.026.203-.078.461-.156.774a23.703 23.703 0 0 1-.453 1.609c-.14.469-.232.77-.273.906l-1.188 4-4.344-12.906c.48-.031.938-.073 1.375-.125a.46.46 0 0 0 .407-.29.487.487 0 0 0-.04-.483c-.099-.151-.247-.222-.445-.211l-3.203.156a57.994 57.994 0 0 1-3.156-.156.47.47 0 0 0-.5.312.604.604 0 0 0-.024.29.44.44 0 0 0 .14.257c.08.073.18.115.306.125l1.25.125L15.64 15.5l-2.625 7.875-4.375-13c.479-.031.937-.073 1.375-.125a.46.46 0 0 0 .406-.29.487.487 0 0 0-.04-.483c-.098-.151-.247-.222-.444-.211l-3.204.156c-.073 0-.192-.003-.359-.008a13.556 13.556 0 0 0-.406-.008 11.958 11.958 0 0 1 4.289-3.96c1.765-.975 3.68-1.462 5.742-1.462 1.531 0 2.992.276 4.383.829a12.082 12.082 0 0 1 3.726 2.328h-.156c-.573 0-1.052.21-1.437.632a2.14 2.14 0 0 0-.578 1.493c0 .125.01.25.03.375.022.125.042.237.063.336.021.099.063.218.125.359.063.14.11.25.14.328.032.078.095.195.188.352.094.156.16.265.196.328.036.062.112.187.226.375.115.187.188.307.219.36.656 1.114.984 2.218.984 3.312zm-7.906 1.657l3.703 10.11c.01.062.037.119.078.171a12.01 12.01 0 0 1-3.984.688c-1.167 0-2.297-.167-3.39-.5l3.593-10.47zm10.328-6.813A11.855 11.855 0 0 1 28.016 16c0 2.177-.542 4.185-1.625 6.023a12.001 12.001 0 0 1-4.36 4.352l3.672-10.594c.615-1.76.922-3.198.922-4.312 0-.438-.031-.85-.094-1.235zM16 2c1.896 0 3.708.37 5.438 1.11 1.729.739 3.218 1.734 4.468 2.984s2.245 2.74 2.985 4.468C29.63 12.293 30 14.104 30 16s-.37 3.708-1.11 5.438c-.739 1.729-1.734 3.218-2.984 4.468s-2.74 2.245-4.468 2.985C19.707 29.63 17.895 30 16 30s-3.708-.37-5.438-1.11c-1.729-.739-3.218-1.734-4.468-2.984s-2.245-2.74-2.985-4.468A13.686 13.686 0 0 1 2 16c0-1.896.37-3.708 1.11-5.438.739-1.729 1.734-3.218 2.984-4.468s2.74-2.245 4.468-2.985C12.293 2.37 14.104 2 16 2zm0 27.36c1.802 0 3.529-.355 5.18-1.063 1.65-.708 3.073-1.659 4.265-2.852 1.193-1.192 2.144-2.614 2.852-4.265A13.004 13.004 0 0 0 29.359 16c0-1.802-.354-3.529-1.062-5.18-.708-1.65-1.659-3.073-2.852-4.265-1.192-1.193-2.614-2.144-4.265-2.852A13.004 13.004 0 0 0 16 2.641c-1.802 0-3.529.354-5.18 1.062-1.65.708-3.073 1.659-4.265 2.852C5.362 7.747 4.41 9.169 3.703 10.82A13.004 13.004 0 0 0 2.641 16c0 1.802.354 3.529 1.062 5.18.708 1.65 1.659 3.073 2.852 4.265 1.192 1.193 2.614 2.144 4.265 2.852A13.004 13.004 0 0 0 16 29.359z"/></svg>