<svg fill="currentcolor" stroke="none" stroke-linecap="round" stroke-linejoin="round" stroke-width="6.25%" width="32" height="32" viewBox="0 0 32 32" xmlns="http://www.w3.org/2000/svg"><path d="M16 2C8.125 2 2 8.125 2 16c0 9.188 8.313 13.125 9.625 13.125.875 0 .875-.438.875-.875v-2.188c-3.063.875-4.375-.875-4.813-2.187 0 0 0-.438-.875-1.313-.437-.437-2.187-1.312-.437-1.312 1.313 0 2.188 1.75 2.188 1.75 1.312 1.75 3.062 1.313 3.937.875 0-.875.875-1.75.875-1.75-3.5-.438-6.125-1.75-6.125-6.563 0-1.75.438-3.062 1.313-3.937 0 0-.876-1.75 0-3.938 0 0 2.187 0 3.937 1.75 1.313-.874 5.688-.874 7 0 1.75-1.75 3.938-1.75 3.938-1.75.875 3.063 0 3.938 0 3.938.875.875 1.312 2.188 1.312 3.938 0 4.812-3.063 6.124-6.125 6.562.438.438.875 1.313.875 2.625v3.5c0 .438 0 .875.875.875C21.688 29.125 30 25.187 30 16c0-7.875-6.125-14-14-14z"/></svg>