<svg fill="currentcolor" stroke="none" stroke-linecap="round" stroke-linejoin="round" stroke-width="6.25%" width="32" height="32" viewBox="0 0 32 32" xmlns="http://www.w3.org/2000/svg"><path d="M15.953 2.016c2.5-.021 4.85.603 7.047 1.873 2.417 1.394 4.25 3.33 5.5 5.806l-11.594-.61c-1.666-.093-3.198.295-4.593 1.164-1.396.868-2.36 2.062-2.891 3.582L5.109 7.213A13.656 13.656 0 0 1 9.97 3.38a14.021 14.021 0 0 1 5.984-1.365zM4.281 8.336l5.266 10.349c.75 1.487 1.849 2.616 3.297 3.386 1.448.77 2.974 1.004 4.578.703l-3.594 7.039a13.795 13.795 0 0 1-6.015-2.458 13.865 13.865 0 0 1-4.258-4.932C2.518 20.43 2 18.289 2 16c0-2.778.76-5.333 2.281-7.663zm24.782 2.638c.604 1.561.914 3.177.93 4.847a14.165 14.165 0 0 1-.759 4.775c-.52 1.514-1.317 2.93-2.39 4.246A13.924 13.924 0 0 1 23 28.112c-2.396 1.383-4.99 2.002-7.781 1.857l6.328-9.724c.917-1.363 1.346-2.874 1.289-4.534-.057-1.66-.612-3.103-1.664-4.33l7.89-.407zM16 11.287c1.302 0 2.414.46 3.336 1.38.922.922 1.383 2.032 1.383 3.333 0 1.3-.461 2.411-1.383 3.332-.922.921-2.034 1.381-3.336 1.381s-2.414-.46-3.336-1.38c-.922-.922-1.383-2.032-1.383-3.333 0-1.3.461-2.411 1.383-3.332.922-.921 2.034-1.381 3.336-1.381z"/></svg>