<svg fill="currentcolor" stroke="none" stroke-linecap="round" stroke-linejoin="round" stroke-width="6.25%" width="32" height="32" viewBox="0 0 32 32" xmlns="http://www.w3.org/2000/svg"><path d="M29.446 16.325c0 2.648-.554 5.007-1.662 7.076a11.98 11.98 0 0 1-4.736 4.851C20.998 29.417 18.648 30 16 30c-1.897 0-3.712-.37-5.443-1.108-1.732-.738-3.222-1.731-4.47-2.98-1.248-1.247-2.24-2.737-2.98-4.469A13.735 13.735 0 0 1 2 16c0-1.897.37-3.712 1.108-5.443.738-1.732 1.731-3.222 2.98-4.47 1.247-1.248 2.737-2.24 4.469-2.98A13.735 13.735 0 0 1 16 2c3.642 0 6.768 1.222 9.378 3.667l-3.8 3.648c-1.49-1.439-3.35-2.158-5.578-2.158a8.363 8.363 0 0 0-4.345 1.184 8.71 8.71 0 0 0-3.161 3.218C7.717 12.915 7.329 14.396 7.329 16c0 1.604.388 3.085 1.165 4.44a8.71 8.71 0 0 0 3.16 3.219A8.363 8.363 0 0 0 16 24.843c1.057 0 2.028-.146 2.913-.44.885-.292 1.614-.658 2.187-1.097a7.961 7.961 0 0 0 1.499-1.5c.426-.56.738-1.088.936-1.585a7.09 7.09 0 0 0 .41-1.413H16v-4.813h13.217c.153.802.23 1.578.23 2.33z"/></svg>