<svg fill="currentcolor" stroke="none" stroke-linecap="round" stroke-linejoin="round" stroke-width="6.25%" width="32" height="32" viewBox="0 0 32 32" xmlns="http://www.w3.org/2000/svg"><path d="M2 10.005A7.999 7.999 0 0 1 10.005 2h11.99A7.999 7.999 0 0 1 30 10.005v11.99A7.999 7.999 0 0 1 21.995 30h-11.99A7.999 7.999 0 0 1 2 21.995v-11.99zm13.963-5.99c2.143-.017 4.157.518 6.042 1.606 2.072 1.196 3.643 2.855 4.715 4.978l-9.94-.522a6.581 6.581 0 0 0-3.938.997c-1.197.745-2.023 1.769-2.479 3.071L6.666 8.472a11.708 11.708 0 0 1 4.166-3.286 12.021 12.021 0 0 1 5.13-1.17zM5.956 9.436l4.514 8.872c.643 1.275 1.586 2.243 2.827 2.904 1.241.66 2.55.86 3.925.602l-3.081 6.035a11.827 11.827 0 0 1-5.158-2.108 11.888 11.888 0 0 1-3.65-4.228A11.758 11.758 0 0 1 4 16.005c0-2.382.652-4.572 1.956-6.57zm21.246 2.261c.518 1.339.784 2.724.797 4.155a12.144 12.144 0 0 1-.65 4.095 11.826 11.826 0 0 1-2.049 3.64 11.938 11.938 0 0 1-3.295 2.803c-2.055 1.187-4.278 1.717-6.672 1.593l5.426-8.337a6.402 6.402 0 0 0 1.105-3.887c-.05-1.423-.525-2.661-1.427-3.714l6.765-.348zm-11.199.268c1.116 0 2.07.395 2.86 1.184.79.79 1.186 1.742 1.186 2.857 0 1.115-.395 2.068-1.186 2.857-.79.79-1.744 1.184-2.86 1.184-1.116 0-2.07-.394-2.86-1.184-.79-.79-1.186-1.742-1.186-2.857 0-1.115.396-2.067 1.186-2.857.79-.79 1.744-1.184 2.86-1.184z"/></svg>