<svg fill="currentcolor" stroke="none" stroke-linecap="round" stroke-linejoin="round" stroke-width="6.25%" width="32" height="32" viewBox="0 0 32 32" xmlns="http://www.w3.org/2000/svg"><path d="M2 10.005A7.999 7.999 0 0 1 10.005 2h11.99A7.999 7.999 0 0 1 30 10.005v11.99A7.999 7.999 0 0 1 21.995 30h-11.99A7.999 7.999 0 0 1 2 21.995v-11.99zm16.721 6.156c0 1.325-.277 2.504-.83 3.538a5.99 5.99 0 0 1-2.368 2.426c-1.025.582-2.2.873-3.524.873a6.867 6.867 0 0 1-2.721-.554 7.01 7.01 0 0 1-2.235-1.49 7.01 7.01 0 0 1-1.49-2.234A6.867 6.867 0 0 1 5 16c0-.95.185-1.856.554-2.722a7.01 7.01 0 0 1 1.49-2.235 7.01 7.01 0 0 1 2.234-1.49A6.867 6.867 0 0 1 11.999 9c1.82 0 3.384.611 4.688 1.833l-1.9 1.824c-.744-.72-1.674-1.079-2.788-1.079-.783 0-1.507.197-2.172.592a4.355 4.355 0 0 0-1.58 1.61A4.39 4.39 0 0 0 7.664 16c0 .801.194 1.541.583 2.22a4.355 4.355 0 0 0 1.58 1.608c.665.395 1.39.592 2.172.592.528 0 1.014-.073 1.456-.22.443-.146.807-.329 1.094-.549.286-.22.536-.469.75-.75.212-.28.368-.543.467-.792.099-.248.167-.483.205-.706H12v-2.406h6.608c.076.4.114.789.114 1.164zM27 14.997v2.005h-1.996v1.995H23v-1.995h-1.996v-2.005H23V13h2.005v1.996H27z"/></svg>