<svg fill="currentcolor" stroke="none" stroke-linecap="round" stroke-linejoin="round" stroke-width="6.25%" width="32" height="32" viewBox="0 0 32 32" xmlns="http://www.w3.org/2000/svg"><path d="M16.102 29.125c-2.947 0-5.573-.783-7.879-2.35-2.306-1.567-4.021-3.641-5.145-6.223-.604-1.364-.953-2.93-1.047-4.7-.093-1.77.042-3.501.406-5.193a20.004 20.004 0 0 1 1.734-4.872C4.96 4.23 5.894 2.968 6.966 2l-.172 4.388c.115-.146.469-.226 1.062-.242.594-.015.958.065 1.093.242.438-.843 1.273-1.561 2.507-2.155 1.233-.593 2.454-.9 3.662-.921-.563.468-1.185 1.241-1.866 2.319-.682 1.077-.987 1.928-.914 2.553.26.083.586.154.976.21.39.058.718.097.984.118.265.02.62.042 1.062.062.442.021.705.037.788.047.157.052.206.29.149.71a2.61 2.61 0 0 1-.477 1.18c-.052.073-.138.17-.257.289-.12.12-.414.304-.883.554-.468.25-.994.427-1.577.531l.234 2.952-2.17-1.047c-.188.448-.227.872-.117 1.273.109.4.296.747.562 1.039.265.291.606.507 1.023.648.416.14.838.174 1.265.101a5.022 5.022 0 0 0 1.53-.539c.49-.265.924-.5 1.304-.702.38-.203.763-.295 1.148-.274.635.042 1.1.214 1.397.516.297.302.399.64.305 1.015l-.04.086a1.15 1.15 0 0 1-.132.195.986.986 0 0 1-.28.242 1.588 1.588 0 0 1-.493.164 2.38 2.38 0 0 1-.726.015c-.625.99-1.377 1.695-2.257 2.116-.88.422-1.97.576-3.271.461a6.287 6.287 0 0 0 2.537 1.288c.922.224 1.799.256 2.632.094a9.623 9.623 0 0 0 2.413-.812 7.92 7.92 0 0 0 1.998-1.366c.557-.531.976-1.073 1.258-1.624a6.35 6.35 0 0 0 .609-3.007 9.138 9.138 0 0 0-.586-2.943c-.349-.906-.757-1.557-1.226-1.952.906.395 1.619.81 2.14 1.241.52.432.92 1.018 1.202 1.757.156-1.77-.143-3.555-.898-5.356-.755-1.801-1.845-3.28-3.272-4.435 2.76.801 4.904 2.256 6.434 4.364 1.53 2.109 2.317 4.802 2.358 8.082a11.97 11.97 0 0 1-.632 3.982 13.303 13.303 0 0 1-1.929 3.717 16.108 16.108 0 0 1-2.951 3.06c-1.125.896-2.413 1.601-3.865 2.116a13.374 13.374 0 0 1-4.505.773z"/></svg>