<svg fill="currentcolor" stroke="none" stroke-linecap="round" stroke-linejoin="round" stroke-width="6.25%" width="32" height="32" viewBox="0 0 32 32" xmlns="http://www.w3.org/2000/svg"><path d="M19.464 16.115c0 1.685-.353 3.186-1.058 4.502a7.623 7.623 0 0 1-3.014 3.087c-1.304.741-2.799 1.112-4.484 1.112a8.74 8.74 0 0 1-3.464-.705 8.921 8.921 0 0 1-2.843-1.896 8.921 8.921 0 0 1-1.896-2.843A8.74 8.74 0 0 1 2 15.908a8.74 8.74 0 0 1 .705-3.464A8.921 8.921 0 0 1 4.6 9.601a8.921 8.921 0 0 1 2.843-1.896A8.74 8.74 0 0 1 10.908 7c2.317 0 4.306.778 5.967 2.333l-2.418 2.322c-.948-.916-2.131-1.374-3.549-1.374-.997 0-1.918.251-2.765.754a5.542 5.542 0 0 0-2.011 2.047 5.587 5.587 0 0 0-.741 2.826c0 1.02.247 1.963.74 2.826a5.542 5.542 0 0 0 2.012 2.047 5.321 5.321 0 0 0 2.765.754 5.87 5.87 0 0 0 1.853-.28c.563-.186 1.027-.42 1.392-.699.364-.28.682-.597.954-.954.271-.356.47-.692.595-1.008a4.51 4.51 0 0 0 .262-.9h-5.056v-3.062h8.41a7.92 7.92 0 0 1 .146 1.483zM30 14.632v2.552h-2.54v2.54h-2.552v-2.54h-2.54v-2.552h2.54v-2.54h2.552v2.54H30z"/></svg>