<svg fill="currentcolor" stroke="none" stroke-linecap="round" stroke-linejoin="round" stroke-width="6.25%" width="32" height="32" viewBox="0 0 32 32" xmlns="http://www.w3.org/2000/svg"><path d="M28.45 2c.426 0 .79.152 1.094.456.304.304.456.668.456 1.093v24.902c0 .425-.152.79-.456 1.093a1.492 1.492 0 0 1-1.093.456h-7.128V19.154h3.628l.546-4.23h-4.174v-2.697c0-.681.143-1.191.428-1.532.286-.34.842-.51 1.668-.51l2.224-.018V6.393c-.765-.11-1.847-.164-3.245-.164-1.652 0-2.974.486-3.964 1.458-.99.973-1.486 2.346-1.486 4.12v3.117h-3.646v4.23h3.646V30H3.549c-.425 0-.79-.152-1.093-.456A1.492 1.492 0 0 1 2 28.451V3.549c0-.425.152-.79.456-1.093A1.492 1.492 0 0 1 3.549 2h24.902z"/></svg>