<svg fill="currentcolor" stroke="none" stroke-linecap="round" stroke-linejoin="round" stroke-width="6.25%" width="32" height="32" viewBox="0 0 32 32" xmlns="http://www.w3.org/2000/svg"><path d="M25.328 5.563c-1.719-1.146-3.588-1.72-5.61-1.72-1.614 0-3.14.381-4.577 1.141-1.438.76-2.688 1.802-3.75 3.125-.782.97-1.404 2.105-1.868 3.407a13.452 13.452 0 0 0-.757 4.156v.656c.041 1.469.294 2.854.757 4.156.464 1.302 1.086 2.438 1.868 3.407 1.062 1.323 2.312 2.364 3.75 3.125a9.651 9.651 0 0 0 4.578 1.14c2.02 0 3.89-.573 5.61-1.718-1.261 1.125-2.691 2-4.29 2.625A13.718 13.718 0 0 1 16 30c-.302 0-.526-.005-.672-.016a13.616 13.616 0 0 1-5.203-1.28c-1.646-.772-3.063-1.777-4.25-3.017-1.188-1.24-2.13-2.703-2.828-4.39A13.726 13.726 0 0 1 2 16c0-1.896.37-3.708 1.11-5.438.739-1.729 1.734-3.218 2.984-4.468s2.74-2.245 4.468-2.985C12.293 2.37 14.104 2 16 2h.047a14.013 14.013 0 0 1 9.281 3.563zM30 16c0 2-.401 3.888-1.203 5.664a14.238 14.238 0 0 1-3.328 4.633A6.583 6.583 0 0 1 22 27.28c-1.427 0-2.755-.437-3.984-1.312 1.604-.584 2.924-1.797 3.96-3.64 1.037-1.845 1.555-3.954 1.555-6.329 0-2.365-.515-4.469-1.547-6.313-1.03-1.843-2.349-3.062-3.953-3.656 1.24-.864 2.563-1.297 3.969-1.297 1.24 0 2.417.339 3.531 1.016a13.905 13.905 0 0 1 3.29 4.61A13.741 13.741 0 0 1 30 16z"/></svg>