<svg fill="currentcolor" stroke="none" stroke-linecap="round" stroke-linejoin="round" stroke-width="6.25%" width="32" height="32" viewBox="0 0 32 32" xmlns="http://www.w3.org/2000/svg"><path d="M17 15.95c0 .285-.09.53-.27.739a.863.863 0 0 1-.68.311c-.285 0-.53-.09-.739-.27a.863.863 0 0 1-.311-.68c0-.285.093-.53.279-.739a.887.887 0 0 1 .688-.311c.273 0 .514.09.722.27.207.18.311.408.311.68zm.5 1.55L23 8c-.094.083-8.5 6.5-8.5 6.5L9 24c.073-.073 8.5-6.5 8.5-6.5zM27 16c0 2.062-.533 3.964-1.6 5.708-.03-.02-.82-.01-.215.338a11.019 11.019 0 0 1-2.839 2.93 10.775 10.775 0 0 1-3.715 1.7l-.385.093C17.508 26.923 16.76 27 16 27c-2.041 0-3.949-.538-5.723-1.615.01-.02-.318-.247-.339-.216a11.05 11.05 0 0 1-2.953-2.884 10.779 10.779 0 0 1-1.693-3.762l-.077-.385A11.2 11.2 0 0 1 5 16c0-2.113.559-4.056 1.677-5.83.02.01.215-.34.215-.34A11.198 11.198 0 0 1 9.8 6.924a10.79 10.79 0 0 1 3.754-1.646l.384-.077A11.47 11.47 0 0 1 16 5c2.092 0 4.036.559 5.83 1.677.516.461.078 0 .324.215 1.138.77 2.1 1.723 2.884 2.862a10.962 10.962 0 0 1 1.654 3.708l.093.384c.143.739.215 1.457.215 2.154zm1.5 0c0-1.698-.33-3.318-.992-4.86-.662-1.541-1.55-2.87-2.664-3.984-1.115-1.114-2.443-2.002-3.985-2.664A12.197 12.197 0 0 0 16 3.5c-1.698 0-3.318.33-4.86.992-1.541.662-2.87 1.55-3.984 2.664C6.042 8.271 5.154 9.6 4.492 11.141A12.197 12.197 0 0 0 3.5 16c0 1.698.33 3.318.992 4.86.662 1.541 1.55 2.87 2.664 3.984 1.115 1.114 2.443 2.002 3.985 2.664 1.541.661 3.161.992 4.859.992s3.318-.33 4.86-.992c1.541-.662 2.87-1.55 3.984-2.664 1.114-1.115 2.002-2.443 2.664-3.985.661-1.541.992-3.161.992-4.859zm1.5 0c0 1.896-.37 3.708-1.11 5.438-.739 1.729-1.734 3.218-2.984 4.468s-2.74 2.245-4.468 2.985C19.707 29.63 17.895 30 16 30s-3.708-.37-5.438-1.11c-1.729-.739-3.218-1.734-4.468-2.984s-2.245-2.74-2.985-4.468A13.686 13.686 0 0 1 2 16c0-1.896.37-3.708 1.11-5.438.739-1.729 1.734-3.218 2.984-4.468s2.74-2.245 4.468-2.985C12.293 2.37 14.104 2 16 2s3.708.37 5.438 1.11c1.729.739 3.218 1.734 4.468 2.984s2.245 2.74 2.985 4.468C29.63 12.293 30 14.104 30 16z"/></svg>